<svg xmlns="http://www.w3.org/2000/svg" viewBox="0 0 256 256" width="32" height="32">
  <rect width="256" height="256" fill="#2563EB"/>
  <rect x="30" y="40" width="196" height="180" rx="12" fill="white" stroke="#1E40AF" stroke-width="4"/>
  <rect x="45" y="50" width="166" height="35" fill="#2563EB" rx="4"/>
  <circle cx="85" cy="67" r="4" fill="white"/>
  <circle cx="115" cy="67" r="4" fill="white"/>
  <circle cx="145" cy="67" r="4" fill="white"/>
  <rect x="45" y="100" width="25" height="25" fill="#3B82F6" rx="3"/>
  <rect x="80" y="100" width="25" height="25" fill="#3B82F6" rx="3"/>
  <rect x="115" y="100" width="25" height="25" fill="#3B82F6" rx="3"/>
  <rect x="150" y="100" width="25" height="25" fill="#3B82F6" rx="3"/>
  <rect x="45" y="140" width="25" height="25" fill="#E0E7FF" rx="3"/>
  <rect x="80" y="140" width="25" height="25" fill="#E0E7FF" rx="3"/>
  <rect x="115" y="140" width="25" height="25" fill="#E0E7FF" rx="3"/>
  <rect x="150" y="140" width="25" height="25" fill="#E0E7FF" rx="3"/>
  <rect x="45" y="180" width="25" height="25" fill="#E0E7FF" rx="3"/>
</svg>